<?xml version="1.0" encoding="UTF-8" standalone="no"?>
<!-- Created by Flowgorithm 3.5.1 (http://flowgorithm.org) -->

<svg xmlns:svg="http://www.w3.org/2000/svg" xmlns="http://www.w3.org/2000/svg" version="1.1" width="2325" height="2925">
	<rect x="0" y="0" width="2325" height="2925" fill="#FFFFFF"/>
	<g>
		<polyline fill="none" stroke="#404040" stroke-width="6" stroke-dasharray="none" points="1325,250 1325,450"/>
		<polyline fill="none" stroke="#404040" stroke-width="6" stroke-dasharray="none" points="1325,2650 1325,2711"/>
		<polygon fill="#404040" stroke="none" points="1325,2725 1338,2700 1311,2700"/>
		<g>
			<path fill="#F0E0FF" stroke="#9070A0" stroke-width="3" stroke-dasharray="none" d="M 800,100 A 75 75, 0, 0 0, 800 250 L 1850,250 A 75 75, 0, 0 0, 1850 100 Z"/>
			<text x="1325" y="115" fill="#000000" font-family="Arial" font-size="32pt" text-anchor="middle" direction="ltr">
				<tspan x="1325" dy="50" unicode-bidi="embed">hourMin</tspan>
				<tspan x="1325" dy="50" unicode-bidi="embed">(String namePassenger, Integer hour, Integer minute)</tspan>
			</text>
		</g>
		<g>
			<path fill="#F0E0FF" stroke="#9070A0" stroke-width="3" stroke-dasharray="none" d="M 1225,2725 A 50 50, 0, 0 0, 1225 2825 L 1425,2825 A 50 50, 0, 0 0, 1425 2725 Z"/>
			<text x="1325" y="2740" fill="#000000" font-family="Arial" font-size="32pt" text-anchor="middle" direction="ltr">
				<tspan x="1325" dy="50" unicode-bidi="embed">End</tspan>
			</text>
		</g>
		<g>
			<polyline fill="none" stroke="#404040" stroke-width="6" stroke-dasharray="none" points="1325,450 1325,636"/>
			<polygon fill="#404040" stroke="none" points="1325,650 1338,625 1311,625"/>
			<polyline fill="none" stroke="#404040" stroke-width="6" stroke-dasharray="none" points="1325,775 1325,836"/>
			<polygon fill="#404040" stroke="none" points="1325,850 1338,825 1311,825"/>
			<polyline fill="none" stroke="#404040" stroke-width="6" stroke-dasharray="none" points="1325,2000 1325,2061"/>
			<polygon fill="#404040" stroke="none" points="1325,2075 1338,2050 1311,2050"/>
			<g>
				<polyline fill="none" stroke="#404040" stroke-width="6" stroke-dasharray="6,12" points="1325,450 1450,450"/>
				<g>
					<path fill="#FFFFFF" stroke="#606060" stroke-width="3" stroke-dasharray="6,6" d="M 1450,325 L 1450,575 L 2200,575 L 2200,325 Z"/>
					<text x="1825" y="340" fill="#606060" font-family="Arial" font-size="32pt" text-anchor="middle" direction="ltr">
						<tspan x="1825" dy="50" unicode-bidi="embed">Defini&#231;&#227;o da hora m&#237;nima para</tspan>
						<tspan x="1825" dy="50" unicode-bidi="embed"> passageiro ir para a fila da</tspan>
						<tspan x="1825" dy="50" unicode-bidi="embed"> seguran&#231;a. Definida como 2 horas</tspan>
						<tspan x="1825" dy="50" unicode-bidi="embed"> antes do hor&#225;rio do voo</tspan>
					</text>
				</g>
			</g>
			<g>
				<path fill="#FFFFD0" stroke="#A0A070" stroke-width="3" stroke-dasharray="none" d="M 1075,650 L 1075,775 L 1575,775 L 1575,650 Z"/>
				<polyline fill="none" stroke="#A0A070" stroke-width="3" stroke-dasharray="none" points="1075,675 1575,675"/>
				<polyline fill="none" stroke="#A0A070" stroke-width="3" stroke-dasharray="none" points="1100,650 1100,775"/>
				<text x="1337" y="690" fill="#000000" font-family="Arial" font-size="32pt" text-anchor="middle" direction="ltr">
					<tspan x="1337" dy="50" unicode-bidi="embed">String hourMinimum</tspan>
				</text>
			</g>
			<g>
				<polyline fill="none" stroke="#404040" stroke-width="6" stroke-dasharray="none" points="1625,1025 1800,1025 1800,1236"/>
				<polygon fill="#404040" stroke="none" points="1800,1250 1813,1225 1786,1225"/>
				<polyline fill="none" stroke="#404040" stroke-width="6" stroke-dasharray="none" points="1800,1350 1800,1975 1363,1975"/>
				<polygon fill="#404040" stroke="none" points="1350,1975 1374,1988 1374,1961"/>
				<polyline fill="none" stroke="#404040" stroke-width="6" stroke-dasharray="none" points="1025,1025 650,1025 650,1236"/>
				<polygon fill="#404040" stroke="none" points="650,1250 663,1225 636,1225"/>
				<polyline fill="none" stroke="#404040" stroke-width="6" stroke-dasharray="none" points="650,1875 650,1975 1286,1975"/>
				<polygon fill="#404040" stroke="none" points="1300,1975 1275,1961 1275,1988"/>
				<g>
					<path fill="#FFD0D0" stroke="#A07070" stroke-width="3" stroke-dasharray="none" d="M 1325,850 L 1000,1025 L 1325,1200 L 1650,1025 Z"/>
					<text x="1325" y="990" fill="#000000" font-family="Arial" font-size="32pt" text-anchor="middle" direction="ltr">
						<tspan x="1325" dy="50" unicode-bidi="embed">hour == 00 or hour == 0</tspan>
					</text>
				</g>
				<g>
					<path fill="#FFFFD0" stroke="#A0A070" stroke-width="3" stroke-dasharray="none" d="M 1650,1250 L 1650,1350 L 1950,1350 L 1950,1250 Z"/>
					<text x="1800" y="1265" fill="#000000" font-family="Arial" font-size="32pt" text-anchor="middle" direction="ltr">
						<tspan x="1800" dy="50" unicode-bidi="embed">hour = 24</tspan>
					</text>
				</g>
				<g>
					<polyline fill="none" stroke="#404040" stroke-width="6" stroke-dasharray="none" points="950,1425 1125,1425 1125,1636"/>
					<polygon fill="#404040" stroke="none" points="1125,1650 1138,1625 1111,1625"/>
					<polyline fill="none" stroke="#404040" stroke-width="6" stroke-dasharray="none" points="1125,1750 1125,1850 688,1850"/>
					<polygon fill="#404040" stroke="none" points="675,1850 699,1863 699,1836"/>
					<polyline fill="none" stroke="#404040" stroke-width="6" stroke-dasharray="none" points="350,1425 150,1425 150,1850 611,1850"/>
					<polygon fill="#404040" stroke="none" points="625,1850 600,1836 600,1863"/>
					<g>
						<path fill="#FFD0D0" stroke="#A07070" stroke-width="3" stroke-dasharray="none" d="M 650,1250 L 325,1425 L 650,1600 L 975,1425 Z"/>
						<text x="650" y="1390" fill="#000000" font-family="Arial" font-size="32pt" text-anchor="middle" direction="ltr">
							<tspan x="650" dy="50" unicode-bidi="embed">hour == 01 or hour == 1</tspan>
						</text>
					</g>
					<g>
						<path fill="#FFFFD0" stroke="#A0A070" stroke-width="3" stroke-dasharray="none" d="M 975,1650 L 975,1750 L 1275,1750 L 1275,1650 Z"/>
						<text x="1125" y="1665" fill="#000000" font-family="Arial" font-size="32pt" text-anchor="middle" direction="ltr">
							<tspan x="1125" dy="50" unicode-bidi="embed">hour = 25</tspan>
						</text>
					</g>
					<g>
					</g>
					<ellipse cx="650" cy="1850" rx="25" ry="25" fill="#FFD0D0" stroke="#A07070" stroke-width="3"/>
					<text x="1050" y="1340" fill="#000000" font-family="Arial" font-size="32pt" text-anchor="middle" direction="ltr">
						<tspan x="1050" dy="50" unicode-bidi="embed">True</tspan>
					</text>
					<text x="237" y="1340" fill="#000000" font-family="Arial" font-size="32pt" text-anchor="middle" direction="ltr">
						<tspan x="237" dy="50" unicode-bidi="embed">False</tspan>
					</text>
				</g>
				<ellipse cx="1325" cy="1975" rx="25" ry="25" fill="#FFD0D0" stroke="#A07070" stroke-width="3"/>
				<text x="1725" y="940" fill="#000000" font-family="Arial" font-size="32pt" text-anchor="middle" direction="ltr">
					<tspan x="1725" dy="50" unicode-bidi="embed">True</tspan>
				</text>
				<text x="912" y="940" fill="#000000" font-family="Arial" font-size="32pt" text-anchor="middle" direction="ltr">
					<tspan x="912" dy="50" unicode-bidi="embed">False</tspan>
				</text>
			</g>
			<g>
				<polyline fill="none" stroke="#404040" stroke-width="6" stroke-dasharray="none" points="1500,2175 1800,2175 1800,2311"/>
				<polygon fill="#404040" stroke="none" points="1800,2325 1813,2300 1786,2300"/>
				<polyline fill="none" stroke="#404040" stroke-width="6" stroke-dasharray="none" points="1800,2525 1800,2625 1363,2625"/>
				<polygon fill="#404040" stroke="none" points="1350,2625 1374,2638 1374,2611"/>
				<polyline fill="none" stroke="#404040" stroke-width="6" stroke-dasharray="none" points="1150,2175 850,2175 850,2311"/>
				<polygon fill="#404040" stroke="none" points="850,2325 863,2300 836,2300"/>
				<polyline fill="none" stroke="#404040" stroke-width="6" stroke-dasharray="none" points="850,2525 850,2625 1286,2625"/>
				<polygon fill="#404040" stroke="none" points="1300,2625 1275,2611 1275,2638"/>
				<g>
					<path fill="#FFD0D0" stroke="#A07070" stroke-width="3" stroke-dasharray="none" d="M 1325,2075 L 1125,2175 L 1325,2275 L 1525,2175 Z"/>
					<text x="1325" y="2140" fill="#000000" font-family="Arial" font-size="32pt" text-anchor="middle" direction="ltr">
						<tspan x="1325" dy="50" unicode-bidi="embed">minute &lt; 30</tspan>
					</text>
				</g>
				<g>
					<path fill="#D0FFD0" stroke="#70A070" stroke-width="3" stroke-dasharray="none" d="M 1475,2325 L 1375,2525 L 2125,2525 L 2225,2325 Z"/>
					<text x="1800" y="2340" fill="#000000" font-family="Arial" font-size="32pt" text-anchor="middle" direction="ltr">
						<tspan x="1800" dy="50" unicode-bidi="embed">Output &quot;Pode se apresentar</tspan>
						<tspan x="1800" dy="50" unicode-bidi="embed"> na fila para a seguran&#231;a a</tspan>
						<tspan x="1800" dy="50" unicode-bidi="embed"> partir das &quot;&amp; (hour-2) &amp; &quot;:00&quot;</tspan>
					</text>
				</g>
				<g>
					<path fill="#D0FFD0" stroke="#70A070" stroke-width="3" stroke-dasharray="none" d="M 525,2325 L 425,2525 L 1175,2525 L 1275,2325 Z"/>
					<text x="850" y="2340" fill="#000000" font-family="Arial" font-size="32pt" text-anchor="middle" direction="ltr">
						<tspan x="850" dy="50" unicode-bidi="embed">Output &quot;Pode se apresentar</tspan>
						<tspan x="850" dy="50" unicode-bidi="embed"> na fila para a seguran&#231;a a</tspan>
						<tspan x="850" dy="50" unicode-bidi="embed"> partir das &quot;&amp; (hour-2) &amp; &quot;:30&quot;</tspan>
					</text>
				</g>
				<ellipse cx="1325" cy="2625" rx="25" ry="25" fill="#FFD0D0" stroke="#A07070" stroke-width="3"/>
				<text x="1600" y="2090" fill="#000000" font-family="Arial" font-size="32pt" text-anchor="middle" direction="ltr">
					<tspan x="1600" dy="50" unicode-bidi="embed">True</tspan>
				</text>
				<text x="1037" y="2090" fill="#000000" font-family="Arial" font-size="32pt" text-anchor="middle" direction="ltr">
					<tspan x="1037" dy="50" unicode-bidi="embed">False</tspan>
				</text>
			</g>
		</g>
	</g>
</svg>
