<?xml version="1.0" encoding="UTF-8" standalone="no"?>
<!-- Created by Flowgorithm 3.5.1 (http://flowgorithm.org) -->

<svg xmlns:svg="http://www.w3.org/2000/svg" xmlns="http://www.w3.org/2000/svg" version="1.1" width="1450" height="2550">
	<rect x="0" y="0" width="1450" height="2550" fill="#FFFFFF"/>
	<g>
		<polyline fill="none" stroke="#404040" stroke-width="6" stroke-dasharray="none" points="425,250 425,311"/>
		<polygon fill="#404040" stroke="none" points="425,325 438,300 411,300"/>
		<polyline fill="none" stroke="#404040" stroke-width="6" stroke-dasharray="none" points="425,2275 425,2336"/>
		<polygon fill="#404040" stroke="none" points="425,2350 438,2325 411,2325"/>
		<g>
			<path fill="#F0E0FF" stroke="#9070A0" stroke-width="3" stroke-dasharray="none" d="M 250,100 A 75 75, 0, 0 0, 250 250 L 600,250 A 75 75, 0, 0 0, 600 100 Z"/>
			<text x="425" y="115" fill="#000000" font-family="Arial" font-size="32pt" text-anchor="middle" direction="ltr">
				<tspan x="425" dy="50" unicode-bidi="embed">splitMinPlane</tspan>
				<tspan x="425" dy="50" unicode-bidi="embed">(String hourPlane)</tspan>
			</text>
		</g>
		<g>
			<path fill="#F0E0FF" stroke="#9070A0" stroke-width="3" stroke-dasharray="none" d="M 225,2350 A 50 50, 0, 0 0, 225 2450 L 625,2450 A 50 50, 0, 0 0, 625 2350 Z"/>
			<text x="425" y="2365" fill="#000000" font-family="Arial" font-size="32pt" text-anchor="middle" direction="ltr">
				<tspan x="425" dy="50" unicode-bidi="embed">Return Integer min1</tspan>
			</text>
		</g>
		<g>
			<polyline fill="none" stroke="#404040" stroke-width="6" stroke-dasharray="none" points="425,450 425,511"/>
			<polygon fill="#404040" stroke="none" points="425,525 438,500 411,500"/>
			<polyline fill="none" stroke="#404040" stroke-width="6" stroke-dasharray="none" points="425,650 425,711"/>
			<polygon fill="#404040" stroke="none" points="425,725 438,700 411,700"/>
			<polyline fill="none" stroke="#404040" stroke-width="6" stroke-dasharray="none" points="425,825 425,886"/>
			<polygon fill="#404040" stroke="none" points="425,900 438,875 411,875"/>
			<polyline fill="none" stroke="#404040" stroke-width="6" stroke-dasharray="none" points="425,1100 425,1161"/>
			<polygon fill="#404040" stroke="none" points="425,1175 438,1150 411,1150"/>
			<polyline fill="none" stroke="#404040" stroke-width="6" stroke-dasharray="none" points="425,1350 425,1411"/>
			<polygon fill="#404040" stroke="none" points="425,1425 438,1400 411,1400"/>
			<polyline fill="none" stroke="#404040" stroke-width="6" stroke-dasharray="none" points="425,1575 425,1636"/>
			<polygon fill="#404040" stroke="none" points="425,1650 438,1625 411,1625"/>
			<polyline fill="none" stroke="#404040" stroke-width="6" stroke-dasharray="none" points="425,1775 425,1950"/>
			<polyline fill="none" stroke="#404040" stroke-width="6" stroke-dasharray="none" points="425,1950 425,2111"/>
			<polygon fill="#404040" stroke="none" points="425,2125 438,2100 411,2100"/>
			<g>
				<path fill="#FFFFD0" stroke="#A0A070" stroke-width="3" stroke-dasharray="none" d="M 150,325 L 150,450 L 700,450 L 700,325 Z"/>
				<polyline fill="none" stroke="#A0A070" stroke-width="3" stroke-dasharray="none" points="150,350 700,350"/>
				<polyline fill="none" stroke="#A0A070" stroke-width="3" stroke-dasharray="none" points="175,325 175,450"/>
				<text x="437" y="365" fill="#000000" font-family="Arial" font-size="32pt" text-anchor="middle" direction="ltr">
					<tspan x="437" dy="50" unicode-bidi="embed">Integer numberofitems</tspan>
				</text>
			</g>
			<g>
				<path fill="#FFFFD0" stroke="#A0A070" stroke-width="3" stroke-dasharray="none" d="M 250,525 L 250,650 L 600,650 L 600,525 Z"/>
				<polyline fill="none" stroke="#A0A070" stroke-width="3" stroke-dasharray="none" points="250,550 600,550"/>
				<polyline fill="none" stroke="#A0A070" stroke-width="3" stroke-dasharray="none" points="275,525 275,650"/>
				<text x="437" y="565" fill="#000000" font-family="Arial" font-size="32pt" text-anchor="middle" direction="ltr">
					<tspan x="437" dy="50" unicode-bidi="embed">String splitOn</tspan>
				</text>
			</g>
			<g>
				<path fill="#FFFFD0" stroke="#A0A070" stroke-width="3" stroke-dasharray="none" d="M 275,725 L 275,825 L 575,825 L 575,725 Z"/>
				<text x="425" y="740" fill="#000000" font-family="Arial" font-size="32pt" text-anchor="middle" direction="ltr">
					<tspan x="425" dy="50" unicode-bidi="embed">splitOn = &quot;:&quot;</tspan>
				</text>
			</g>
			<g>
				<path fill="#FFFFD0" stroke="#A0A070" stroke-width="3" stroke-dasharray="none" d="M 200,900 L 200,1100 L 650,1100 L 650,900 Z"/>
				<text x="425" y="915" fill="#000000" font-family="Arial" font-size="32pt" text-anchor="middle" direction="ltr">
					<tspan x="425" dy="50" unicode-bidi="embed">numberofitems =</tspan>
					<tspan x="425" dy="50" unicode-bidi="embed"> numberofintances</tspan>
					<tspan x="425" dy="50" unicode-bidi="embed">(hourPlane, splitOn)</tspan>
				</text>
			</g>
			<g>
				<path fill="#FFFFD0" stroke="#A0A070" stroke-width="3" stroke-dasharray="none" d="M 175,1175 L 175,1350 L 675,1350 L 675,1175 Z"/>
				<polyline fill="none" stroke="#A0A070" stroke-width="3" stroke-dasharray="none" points="175,1200 675,1200"/>
				<polyline fill="none" stroke="#A0A070" stroke-width="3" stroke-dasharray="none" points="200,1175 200,1350"/>
				<text x="437" y="1215" fill="#000000" font-family="Arial" font-size="32pt" text-anchor="middle" direction="ltr">
					<tspan x="437" dy="50" unicode-bidi="embed">String Array slicedList</tspan>
					<tspan x="437" dy="50" unicode-bidi="embed">[numberofitems]</tspan>
				</text>
			</g>
			<g>
				<path fill="#F0E0FF" stroke="#9070A0" stroke-width="3" stroke-dasharray="none" d="M 100,1425 L 100,1575 L 750,1575 L 750,1425 Z"/>
				<polyline fill="none" stroke="#9070A0" stroke-width="3" stroke-dasharray="none" points="125,1425 125,1575"/>
				<polyline fill="none" stroke="#9070A0" stroke-width="3" stroke-dasharray="none" points="725,1425 725,1575"/>
				<text x="425" y="1440" fill="#000000" font-family="Arial" font-size="32pt" text-anchor="middle" direction="ltr">
					<tspan x="425" dy="50" unicode-bidi="embed">slice(hourPlane, splitOn,</tspan>
					<tspan x="425" dy="50" unicode-bidi="embed"> numberofitems, slicedList)</tspan>
				</text>
			</g>
			<g>
				<path fill="#FFFFD0" stroke="#A0A070" stroke-width="3" stroke-dasharray="none" d="M 250,1650 L 250,1775 L 600,1775 L 600,1650 Z"/>
				<polyline fill="none" stroke="#A0A070" stroke-width="3" stroke-dasharray="none" points="250,1675 600,1675"/>
				<polyline fill="none" stroke="#A0A070" stroke-width="3" stroke-dasharray="none" points="275,1650 275,1775"/>
				<text x="437" y="1690" fill="#000000" font-family="Arial" font-size="32pt" text-anchor="middle" direction="ltr">
					<tspan x="437" dy="50" unicode-bidi="embed">Integer min1</tspan>
				</text>
			</g>
			<g>
				<polyline fill="none" stroke="#404040" stroke-width="6" stroke-dasharray="6,12" points="425,1950 550,1950"/>
				<g>
					<path fill="#FFFFFF" stroke="#606060" stroke-width="3" stroke-dasharray="6,6" d="M 550,1850 L 550,2050 L 1350,2050 L 1350,1850 Z"/>
					<text x="950" y="1865" fill="#606060" font-family="Arial" font-size="32pt" text-anchor="middle" direction="ltr">
						<tspan x="950" dy="50" unicode-bidi="embed">Pega a parte do minuto, separado</tspan>
						<tspan x="950" dy="50" unicode-bidi="embed"> pelo slice, e aloca numa vari&#225;vel para</tspan>
						<tspan x="950" dy="50" unicode-bidi="embed"> dar como retorno da fun&#231;&#227;o</tspan>
					</text>
				</g>
			</g>
			<g>
				<path fill="#FFFFD0" stroke="#A0A070" stroke-width="3" stroke-dasharray="none" d="M 125,2125 L 125,2275 L 725,2275 L 725,2125 Z"/>
				<text x="425" y="2140" fill="#000000" font-family="Arial" font-size="32pt" text-anchor="middle" direction="ltr">
					<tspan x="425" dy="50" unicode-bidi="embed">min1 = ToInteger(slicedList</tspan>
					<tspan x="425" dy="50" unicode-bidi="embed">[1])</tspan>
				</text>
			</g>
		</g>
	</g>
</svg>
